<?xml version="1.0" encoding="UTF-8" standalone="no"?>
<svg
   xmlns:dc="http://purl.org/dc/elements/1.1/"
   xmlns:cc="http://creativecommons.org/ns#"
   xmlns:rdf="http://www.w3.org/1999/02/22-rdf-syntax-ns#"
   xmlns:svg="http://www.w3.org/2000/svg"
   xmlns="http://www.w3.org/2000/svg"
   viewBox="0 0 481.55066 262.41199"
   height="262.41199"
   width="481.55066"
   xml:space="preserve"
   id="svg2"
   version="1.1"><metadata
     id="metadata8"><rdf:RDF><cc:Work
         rdf:about=""><dc:format>image/svg+xml</dc:format><dc:type
           rdf:resource="http://purl.org/dc/dcmitype/StillImage" /></cc:Work></rdf:RDF></metadata><defs
     id="defs6"><clipPath
       id="clipPath18"
       clipPathUnits="userSpaceOnUse"><path
         id="path16"
         d="M 0,196.809 H 361.163 V 0 H 0 Z" /></clipPath></defs><g
     transform="matrix(1.3333333,0,0,-1.3333333,0,262.412)"
     id="g10"><g
       id="g12"><g
         clip-path="url(#clipPath18)"
         id="g14"><g
           transform="translate(32.7479,94.4047)"
           id="g20"><path
             id="path22"
             style="fill:#000000;fill-opacity:1;fill-rule:nonzero;stroke:none"
             d="m 0,0 v -10.833 c 0,0 3.755,-1.5 3.628,4.666 C 3.5,0 1.667,0 0.833,0 Z M 0,14.167 V 7.5 c 0,0 3.333,-1.167 3.5,2 0.167,3.167 0.667,4.833 -2.667,4.667 z M 7,22 C 18.167,17.333 11.333,4 11.333,4 18.833,-15.5 5,-18.5 5,-18.5 H -9.333 V 22 Z" /></g><g
           transform="translate(50.4149,116.4047)"
           id="g24"><path
             id="path26"
             style="fill:#000000;fill-opacity:1;fill-rule:nonzero;stroke:none"
             d="m 0,0 v -29.167 c 0,0 0.333,-11.333 10.667,-11.333 10.333,0 11,7.833 11.333,11.333 C 22.333,-25.667 22,0 22,0 h -9.167 v -29 h -3.5 V 0 Z" /></g><g
           transform="translate(77.7479,116.4047)"
           id="g28"><path
             id="path30"
             style="fill:#000000;fill-opacity:1;fill-rule:nonzero;stroke:none"
             d="m 0,0 v -40.5 h 18.667 v 7.506 H 9.333 V -22 h 8.917 v 7 l -8.917,0.083 v 7.25 L 18.667,-7.5 V 0 Z" /></g><g
           transform="translate(99.3314,116.4047)"
           id="g32"><path
             id="path34"
             style="fill:#000000;fill-opacity:1;fill-rule:nonzero;stroke:none"
             d="m 0,0 v -7.5 h 5.083 v -33 h 9.167 v 33 h 5 V 0 Z" /></g><g
           transform="translate(58.2479,81.0717)"
           id="g36"><path
             id="path38"
             style="fill:#f50d09;fill-opacity:1;fill-rule:nonzero;stroke:none"
             d="m 0,0 c 0,0 -5.833,-8 -7.833,-9.417 0,0 -0.084,-0.5 1.083,-0.5 h 3.5 c 0,0 0.917,-1.278 -6.583,-1.431 0,0 -2.75,-2.569 -1,-2.569 1.75,0 8.083,-0.75 13.5,1.417 C 8.083,-10.334 26.167,-0.334 0,0 m -22.869,-28.5 c -1.703,-2.5 -3.631,-2 -3.631,-2 -3.5,1.833 1.25,7.25 2.917,9.5 1.666,2.25 1.25,2.916 1.25,2.916 -6.417,5.917 7.416,7.834 7.416,7.834 0,0 3.5,3.25 7.084,7 C -4.25,0.5 -5,0.416 -5,0.416 c -12.417,-0.833 -21.5,-3.75 -21.5,-3.75 -1.667,2.5 6.083,8.917 6.083,8.917 41.25,8.583 43.834,-9.417 34.732,-18 C 5.213,-21 -16.667,-19.5 -16.667,-19.5 c -0.929,0.046 -4.5,-6.5 -6.202,-9" /></g><g
           transform="translate(320.2484,79.5717)"
           id="g40"><path
             id="path42"
             style="fill:#f50d09;fill-opacity:1;fill-rule:nonzero;stroke:none"
             d="M 0,0 C 2.428,-0.911 0,-3.5 -0.75,-4.5 -1.5,-5.5 -4,-6.584 -5.584,-5.667 -7.167,-4.75 -6.25,-2 -5.084,-1.25 -3.917,-0.5 -2,0.75 0,0" /></g><g
           transform="translate(152.4149,66.3217)"
           id="g44"><path
             id="path46"
             style="fill:#f50d09;fill-opacity:1;fill-rule:nonzero;stroke:none"
             d="m 0,0 c -1.083,-0.25 -4.083,-1.917 -6.583,-4.875 -2.5,-2.958 0.833,-4.459 2.583,-4.042 1.75,0.417 2.5,0.25 3.25,3 0.75,2.75 1.833,5.084 1.833,5.084 0,0 0,1.083 -1.083,0.833 m -48,-3.75 c -2.5,-2.25 -0.5,-5 0.75,-5.334 1.25,-0.333 4,0.5 4.333,2.334 0.334,1.833 0.417,1.583 1.917,5.166 1.5,3.584 -1.917,1.25 -1.917,1.25 0,0 -2.583,-1.166 -5.083,-3.416 m 115.5,-3 c 0.333,-2.584 6.333,1.5 6.333,1.5 0,0 1.75,1.416 5.75,4.479 4,3.064 0.167,2.521 -3,1.604 -3.166,-0.917 -6.083,-3.207 -6.083,-3.207 0,0 -3.333,-1.793 -3,-4.376 M 110.833,-3 c 2.833,3.416 -1.334,1.916 -2.5,1.333 -1.167,-0.583 -3,-2.583 -5.25,-4.167 -2.25,-1.583 -0.543,-1.701 1.166,-2.083 2.055,-0.459 3.75,1.5 6.584,4.917 m -167.75,7.166 c 2.417,-1.916 -0.583,-4.333 -2.666,-6.54 -2.084,-2.207 -5.334,-5.376 -1.584,-5.46 3.75,-0.083 6.75,3.417 9.5,7.834 2.75,4.416 9.334,5.833 13.5,5.833 4.167,0 5.667,-3.083 3.5,-9.083 -2.166,-6 4.167,-1 4.834,-0.25 0.666,0.75 2.916,2.416 5.916,5.166 3,2.75 -3.416,2.167 -3.416,2.167 0.5,2.5 5,5 5,5 l 5,0.167 0.75,0.583 c 4.666,3.833 7.833,4.333 8.916,3.5 1.084,-0.833 -2.416,-4 -2.416,-4 1.833,-0.5 3.416,-0.167 0.583,-3.583 -2.833,-3.417 -8.083,-3.167 -8.083,-3.167 -16.75,-20.917 5.666,-6.25 5.666,-6.25 5.25,10.167 12,9.917 17,9.667 5,-0.25 3.667,-7.334 1.667,-10.334 -2,-3 1.917,-1.583 3.833,-0.166 1.917,1.416 1.584,2.166 4.334,4.916 2.75,2.75 11.666,6.917 16.416,6.917 4.75,0 4.167,-2.167 -1.083,-4.667 C 25,-0.084 22.5,-0.75 20,-2.374 17.5,-3.997 15.5,-5.334 16.667,-7 c 1.166,-1.667 2.166,-0.917 6.833,1.666 4.667,2.584 9.667,8.167 9.667,8.167 0,0 3.833,2.833 4.166,-0.167 0.334,-3 -0.666,-4.083 -3.25,-8 C 31.5,-9.25 33.583,-7.75 36.167,-6.584 38.75,-5.417 42,-3 42,-3 v 1 c -0.873,2.552 -0.5,3.166 2.917,6.75 3.416,3.583 5.25,0.916 5.25,0.916 V 4.833 h 8.916 C 62.167,2.666 60,0.5 60,0.5 c 0,0 -5.5,-0.917 -6.5,-6.917 -1,-6 9,2.083 9,2.083 2.25,6.917 15.167,11.167 21.667,12 C 90.667,8.5 88.25,4.416 87.5,4.25 86.75,4.083 87.25,3.75 87.25,3.75 89.5,1.333 87.75,0.25 85.333,-3 c -2.416,-3.25 -3,-4.667 -0.25,-4.334 2.75,0.334 5.5,1.834 8.584,4.084 3.083,2.25 11.416,10.166 12.249,11.416 0.833,1.25 1,3.417 6.667,3.25 5.666,-0.166 -3.167,-6.5 -5.084,-8.666 -1.916,-2.167 -0.833,-2.5 0.584,-1.5 1.416,1 5.25,2.583 5.25,2.583 10.5,3.75 4.833,-5.667 0.583,-9.583 -4.25,-3.917 -3.583,-4 2.25,-2.084 5.833,1.917 6.333,4.417 7.583,6.917 1.25,2.5 3.584,5.083 7.5,9 3.917,3.917 7.5,7.333 12,10.833 4.5,3.5 5.5,3.75 7.084,2.334 1.583,-1.417 -3.667,-6.667 -6,-9.5 -2.334,-2.834 -12.25,-10.917 -15.167,-14 -2.917,-3.084 -1.417,-2.834 0.083,-1.75 1.5,1.083 4.417,3.25 6.417,4.666 2,1.417 7.833,5.334 10.083,3.417 2.25,-1.917 1.334,-2.5 -2.583,-6.678 -3.917,-4.177 -3.333,-5.905 -0.25,-5.072 3.083,0.833 4.833,2.917 5.667,4.25 0.833,1.333 3.666,5.833 7,7.833 3.333,2 5.583,2.167 6.666,0.5 1.084,-1.666 -0.5,-3.083 -2.916,-5.166 -2.417,-2.084 -8.834,-5.167 -4.25,-7.25 4.583,-2.084 11.083,3.833 11.083,3.833 0,0 0.167,4.75 10.667,9.25 10.5,4.5 9.916,-1.5 6.666,-5.167 -3.25,-3.666 -5.666,-0.833 -5.666,-0.833 0,0 -0.584,0.083 -4.5,-1.833 -3.917,-1.917 -3.5,-6.417 1.583,-6.5 5.083,-0.084 13.667,5.75 13.667,5.75 0,0 0.333,-1.5 0,-2 -0.334,-0.5 -9.334,-8 -15,-8.167 -5.667,-0.167 -7.084,3.833 -7.667,4.917 -0.583,1.083 0.25,1.583 -4.167,-1.25 -4.416,-2.834 -6.666,-3.5 -7.916,-3.5 -1.25,0 -3.917,0.083 -4.917,3.583 -1,3.5 -1.917,1.083 -4.833,-0.833 -2.917,-1.917 -4.084,-2.584 -7.804,-2.834 -3.722,-0.25 -2.863,4.25 -0.863,7.5 2,3.25 0.167,1.667 -1.917,0.084 -2.083,-1.584 -2,-1.5 -6.083,-4.834 -4.083,-3.333 -4.25,-1.833 -4.917,1.667 -0.666,3.5 -1.083,1.5 -2.166,0.917 -1.084,-0.584 -1,-0.834 -5.417,-3.334 -4.417,-2.5 -9.667,-2.583 -12.333,-1.916 -2.666,0.666 -5.416,-0.084 -5.416,-0.084 C 90.25,-26.25 89.583,-24.417 87.5,-23.5 c -2.083,0.916 3.417,10.666 6.167,13.5 2.75,2.833 10.666,13.416 -3.334,2.25 -14,-11.167 -12.833,-2.917 -12.666,-0.584 0.166,2.334 -1.417,0.917 -1.417,0.917 -9.667,-7.75 -11.417,-3.917 -12.75,-1.417 -1.333,2.5 -3.083,0.167 -3.083,0.167 -8.084,-6.917 -13.334,-5.167 -13.584,-1.667 -0.25,3.5 5.334,9.25 5.334,9.25 0,0 -4,-0.166 -4.667,-0.166 -0.667,0 -1.333,-0.5 -1.333,-0.5 C 44.5,-3.584 40.833,-6 38,-8 c -2.833,-2 -8.25,-4.917 -8.25,-4.917 0,0 -3.583,-3.583 -8.417,-9.083 -4.833,-5.5 -8.916,-5.167 -9.333,-4.334 -0.417,0.834 -1.083,2.75 2.417,6 3.5,3.25 10.25,8.25 11.75,10.334 1.5,2.083 1.416,3.25 -3.834,-0.25 -5.25,-3.5 -9.166,-1.917 -10.083,1.333 C 11.333,-5.667 11.333,-7 11.333,-7 6.25,-10.584 3.25,-9.417 3.25,-9.417 c -12.167,-9.333 -16,1.917 -16,1.917 -11.083,-7.584 -13.667,-5.917 -15.917,-5.591 -2.25,0.326 -0.416,6.424 -0.416,6.424 -0.334,0.333 -2.334,-0.167 -4.75,-1.75 -2.417,-1.583 -5,-1.083 -5,-1.083 -2.5,-4.417 -14.417,-4.5 -14.834,-0.417 -0.416,4.083 -3.75,0.417 -3.75,0.417 l -0.916,-0.667 c -11.5,-7.083 -11.584,0.417 -9.084,4.5 2.5,4.083 -1.666,0.5 -1.666,0.5 0,0 -1.584,-0.667 -5.584,-4.75 -4,-4.083 -6.333,-3.167 -5.697,4.417 0.637,7.583 17.864,22.083 19.614,23.333 1.75,1.25 7.167,5.083 8.25,3.333 1.083,-1.75 -0.75,-3.083 -4.083,-7.25 C -59.917,9.75 -71.25,0.166 -74.25,-2.75 c -3,-2.917 0.833,-1.584 0.833,-1.584 l 1.834,1.584 c 1,1.583 12.25,8.833 14.666,6.916" /></g><g
           transform="translate(32.2064,38.2797)"
           id="g48"><path
             id="path50"
             style="fill:#000000;fill-opacity:1;fill-rule:nonzero;stroke:none"
             d="m 0,0 c 0,0 0.937,3.125 -4.125,3.125 -4.354,0 -4.4,-1.747 -4.408,-2.5 C -8.544,-0.583 -8,-1.542 -6,-2.25 c 2.558,-0.906 3,-0.938 3.187,-1.688 0.188,-0.749 0.061,-2.498 -1.188,-2.423 -1.444,0.086 -1.478,2.019 -1.51,2.863 L -8.531,-3.5 c 0,0 -0.219,-4.187 4.593,-4.187 4.813,0 3.917,4.27 3.917,4.27 0,0 -0.204,1.717 -3.812,2.063 -2.992,0.287 -2.153,2.6 -0.667,2.666 1.499,0.067 1.69,-1.304 1.69,-1.304 z" /></g><g
           transform="translate(77.6439,38.9848)"
           id="g52"><path
             id="path54"
             style="fill:#000000;fill-opacity:1;fill-rule:nonzero;stroke:none"
             d="m 0,0 v -6.091 c 0,0 0.594,-1.249 1.406,0 V 0 C 1.406,0 0.625,1.187 0,0 m -3.5,1 c 0,0 3.438,3.186 8.094,0 v -7.528 c 0,0 -3.688,-4.155 -8.094,0 z" /></g><g
           transform="translate(129.5189,37.0629)"
           id="g56"><path
             id="path58"
             style="fill:#000000;fill-opacity:1;fill-rule:nonzero;stroke:none"
             d="m 0,0 v 1.929 c 0,0 -0.625,1.368 -1.5,0 v -5.817 c 0,0 0.625,-1.773 1.5,0 v 1.617 h 2.938 v -2.405 c 0,0 -3.594,-3.992 -7.688,0 v 7.213 c 0,0 3.375,4.061 7.688,0 V 0.031 Z" /></g><path
           id="path60"
           style="fill:#000000;fill-opacity:1;fill-rule:nonzero;stroke:none"
           d="m 175.175,30.613 h 3.281 v 10.784 h -3.281 z" /><g
           transform="translate(220.5814,41.3969)"
           id="g62"><path
             id="path64"
             style="fill:#000000;fill-opacity:1;fill-rule:nonzero;stroke:none"
             d="m 0,0 v -10.784 h 6.437 v 2.176 H 3.219 v 2.206 h 2.468 l 0.032,2.331 h -2.5 v 1.942 l 3.218,0.016 V 0 Z" /></g><g
           transform="translate(267.3939,41.3969)"
           id="g66"><path
             id="path68"
             style="fill:#000000;fill-opacity:1;fill-rule:nonzero;stroke:none"
             d="m 0,0 v -2.378 h 2.969 v -8.406 h 3.625 v 8.438 h 2.812 l 0,2.346 z" /></g><g
           transform="translate(316.2689,41.3969)"
           id="g70"><path
             id="path72"
             style="fill:#000000;fill-opacity:1;fill-rule:nonzero;stroke:none"
             d="m 0,0 2.938,-6.027 v -4.757 H 6.469 V -6.06 L 9.344,0 H 5.937 L 4.672,-3.648 3.375,0 Z" /></g><g
           transform="translate(21.2479,21.4877)"
           id="g74"><path
             id="path76"
             style="fill:#000000;fill-opacity:1;fill-rule:nonzero;stroke:none"
             d="m 0,0 h 303.25 c 12.167,0 17.917,11.334 17.917,11.334 0,0 2.088,2 2.004,-0.917 0,0 -5.254,-12 -19.838,-12.417 H 0 Z" /></g><g
           transform="translate(238.4564,104.9179)"
           id="g78"><path
             id="path80"
             style="fill:#000000;fill-opacity:1;fill-rule:nonzero;stroke:none"
             d="m 0,0 h 86.208 c 12.167,0 17.917,-11.333 17.917,-11.333 0,0 2.088,-2 2.005,0.916 0,0 -5.255,12 -19.838,12.417 H 0 l -22.25,21.487 h -25.188 c 0,0 -19.604,45 -79.104,45 -62,0 -79.353,-46 -79.353,-46 h 2.687 c 0,0 16.833,43.666 76.547,43.666 59.119,0 76.786,-43.833 76.786,-43.833 5.5,-10.167 6.5,-25.167 1.917,-38.859 0,0 0.25,-2.641 2.583,-0.724 0,0 7.417,18.75 -1,38.25 h 22.833 l 22.75,-21 z" /></g></g></g></g></svg>