<svg id="Icon" xmlns="http://www.w3.org/2000/svg" viewBox="0 0 24 24"><defs><style>.cls-1{fill:#c6c6c6;}.cls-2{fill:#6b6b6b;}.cls-3{fill:#818181;}</style></defs><g id="g4545"><path class="cls-1" d="M23.27,12A11.27,11.27,0,1,1,12,.73,11.28,11.28,0,0,1,23.27,12ZM12,1.22A10.78,10.78,0,1,0,22.77,12,10.78,10.78,0,0,0,12,1.22Z"/><path id="path4776" class="cls-2" d="M11.54,12A2.49,2.49,0,1,1,9.06,9.51,2.49,2.49,0,0,1,11.54,12Z"/><path id="path4778" class="cls-3" d="M17.43,12a2.49,2.49,0,1,1-2.49-2.49A2.49,2.49,0,0,1,17.43,12Z"/></g></svg>