<svg id="svg2" xmlns="http://www.w3.org/2000/svg" xmlns:xlink="http://www.w3.org/1999/xlink" viewBox="0 0 481.55 262.41"><defs><style>.cls-1{fill:none;}.cls-2{clip-path:url(#clip-path);}.cls-3{fill:#f50d09;}</style><clipPath id="clip-path"><rect class="cls-1" width="481.55" height="262.41"/></clipPath></defs><g id="g10"><g id="g12"><g class="cls-2"><g id="g14"><g id="g20"><path id="path22" d="M43.66,136.54V151s5,2,4.84-6.22-2.61-8.22-3.73-8.22Zm0-18.89v8.89s4.45,1.56,4.67-2.67.89-6.44-3.56-6.22ZM53,107.21c14.89,6.22,5.77,24,5.77,24,10,26-8.44,30-8.44,30H31.22v-54Z"/></g><g id="g24"><path id="path26" d="M67.22,107.21V146.1s.44,15.11,14.22,15.11,14.67-10.45,15.11-15.11,0-38.89,0-38.89H84.33v38.66H79.66V107.21Z"/></g><g id="g28"><path id="path30" d="M103.66,107.21v54h24.89v-10H116.11V136.54H128v-9.33l-11.89-.11v-9.67l12.44-.22v-10Z"/></g><g id="g32"><path id="path34" d="M132.44,107.21v10h6.78v44h12.22v-44h6.67v-10Z"/></g><g id="g36"><path id="path38" class="cls-3" d="M77.66,154.32S69.89,165,67.22,166.87c0,0-.11.67,1.44.67h4.67s1.22,1.7-8.78,1.91c0,0-3.66,3.42-1.33,3.42s10.78,1,18-1.89,31.33-16.22-3.56-16.66m-30.49,38c-2.27,3.33-4.84,2.66-4.84,2.66-4.67-2.44,1.67-9.66,3.89-12.66s1.67-3.89,1.67-3.89C39.33,170.54,57.77,168,57.77,168s4.67-4.33,9.45-9.33S71,153.76,71,153.76a132.49,132.49,0,0,0-28.67,5c-2.22-3.33,8.11-11.89,8.11-11.89,55-11.44,58.45,12.56,46.31,24s-41.31,9.45-41.31,9.45c-1.24-.06-6,8.66-8.27,12"/></g><g id="g40"><path id="path42" class="cls-3" d="M427,156.32c3.24,1.21,0,4.66-1,6s-4.34,2.78-6.45,1.55-.89-4.89.67-5.89,4.11-2.66,6.78-1.66"/></g><g id="g44"><path id="path46" class="cls-3" d="M203.22,174c-1.44.34-5.44,2.56-8.78,6.5s1.11,6,3.45,5.39,3.33-.33,4.33-4a49.08,49.08,0,0,1,2.44-6.78,1.09,1.09,0,0,0-1.44-1.11m-64,5a4.18,4.18,0,0,0,1,7.12c1.67.44,5.33-.67,5.78-3.12s.55-2.11,2.55-6.88-2.55-1.67-2.55-1.67a29.33,29.33,0,0,0-6.78,4.55m154,4c.44,3.45,8.44-2,8.44-2s2.34-1.88,7.67-6,.22-3.36-4-2.14a28.06,28.06,0,0,0-8.11,4.28s-4.44,2.39-4,5.83M351,178c3.77-4.55-1.78-2.55-3.34-1.77s-4,3.44-7,5.55-.72,2.27,1.56,2.78c2.74.61,5-2,8.78-6.56m-223.67-9.55c3.22,2.55-.78,5.78-3.55,8.72s-7.12,7.17-2.12,7.28,9-4.56,12.67-10.45,12.45-7.77,18-7.77,7.56,4.11,4.67,12.11,5.55,1.33,6.44.33,3.89-3.22,7.89-6.89-4.55-2.89-4.55-2.89c.66-3.33,6.66-6.66,6.66-6.66l6.67-.23,1-.77c6.22-5.11,10.44-5.78,11.89-4.67s-3.22,5.33-3.22,5.33c2.44.67,4.55.23.77,4.78s-10.77,4.22-10.77,4.22c-22.34,27.89,7.55,8.34,7.55,8.34,7-13.56,16-13.23,22.67-12.89s4.89,9.78,2.22,13.78,2.56,2.11,5.11.22,2.11-2.89,5.78-6.56,15.55-9.22,21.89-9.22,5.55,2.89-1.45,6.22-10.33,4.22-13.66,6.39-6,3.95-4.45,6.17,2.89,1.22,9.11-2.22,12.89-10.89,12.89-10.89,5.11-3.78,5.56.22-.89,5.44-4.34,10.67-.66,3.22,2.78,1.66a51.93,51.93,0,0,0,7.78-4.78v-1.33c-1.16-3.4-.67-4.22,3.89-9s7-1.22,7-1.22v1.11H282c4.11,2.89,1.22,5.78,1.22,5.78a11.1,11.1,0,0,0-8.67,9.22c-1.33,8,12-2.78,12-2.78,3-9.22,20.23-14.89,28.89-16s5.45,4.34,4.45,4.56-.34.66-.34.66c3,3.23.67,4.67-2.55,9s-4,6.23-.34,5.78,7.34-2.44,11.45-5.44,15.22-13.56,16.33-15.22,1.33-4.56,8.89-4.34-4.22,8.67-6.78,11.56-1.11,3.33.78,2a52.8,52.8,0,0,1,7-3.45c14-5,6.44,7.56.78,12.78s-4.78,5.33,3,2.78,8.44-5.89,10.11-9.22,4.78-6.78,10-12a165.27,165.27,0,0,1,16-14.45c6-4.66,7.33-5,9.44-3.11s-4.89,8.89-8,12.67S379.33,172.87,375.44,177s-1.89,3.78.11,2.34,5.89-4.34,8.56-6.22,10.44-7.12,13.44-4.56,1.78,3.33-3.44,8.9-4.45,7.88-.34,6.77a12.85,12.85,0,0,0,7.56-5.67c1.11-1.78,4.89-7.78,9.33-10.44s7.45-2.89,8.89-.67-.66,4.11-3.89,6.89S403.89,181.21,410,184s14.77-5.11,14.77-5.11.23-6.33,14.23-12.33,13.22,2,8.89,6.89-7.56,1.11-7.56,1.11-.78-.11-6,2.44-4.67,8.56,2.11,8.67S454.66,178,454.66,178s.45,2,0,2.67-12.44,10.67-20,10.89-9.44-5.11-10.22-6.56.33-2.11-5.55,1.67-8.89,4.67-10.56,4.67-5.22-.11-6.56-4.78-2.55-1.44-6.44,1.11-5.44,3.45-10.4,3.78-3.82-5.67-1.16-10,.23-2.22-2.55-.11-2.67,2-8.11,6.44-5.67,2.45-6.56-2.22-1.44-2-2.89-1.22-1.33,1.11-7.22,4.44A24.47,24.47,0,0,1,340,191.32a16.14,16.14,0,0,0-7.22.11c-9.23,17.55-10.12,15.11-12.89,13.89s4.55-14.22,8.22-18,14.22-17.89-4.45-3-17.11,3.89-16.88.78-1.89-1.23-1.89-1.23c-12.89,10.34-15.23,5.23-17,1.89s-4.11-.22-4.11-.22c-10.78,9.22-17.78,6.89-18.12,2.22s7.12-12.33,7.12-12.33-5.34.22-6.23.22a3.45,3.45,0,0,0-1.77.67c-2.23,2.44-7.12,5.66-10.89,8.33s-11,6.56-11,6.56-4.78,4.77-11.23,12.11-11.88,6.89-12.44,5.78-1.44-3.67,3.22-8,13.67-11,15.67-13.78,1.89-4.34-5.11.33-12.22,2.56-13.45-1.78-1.22-2.55-1.22-2.55c-6.78,4.78-10.78,3.22-10.78,3.22C191.33,199,186.22,184,186.22,184,171.44,194.1,168,191.87,165,191.44s-.56-8.57-.56-8.57c-.44-.44-3.11.23-6.33,2.34a9.82,9.82,0,0,1-6.67,1.44c-3.33,5.89-19.22,6-19.78.56s-5-.56-5-.56l-1.22.89c-15.33,9.44-15.44-.56-12.11-6s-2.22-.67-2.22-.67-2.11.89-7.45,6.34-8.44,4.22-7.59-5.89,23.82-29.45,26.15-31.11,9.56-6.78,11-4.45-1,4.11-5.44,9.67-19.56,18.33-23.56,22.22,1.11,2.11,1.11,2.11l2.45-2.11c1.33-2.11,16.33-11.78,19.55-9.22"/></g><g id="g48"><path id="path50" d="M42.94,211.37s1.25-4.16-5.5-4.16c-5.8,0-5.86,2.33-5.88,3.33,0,1.61.72,2.89,3.38,3.83,3.41,1.21,4,1.25,4.25,2.25s.08,3.33-1.58,3.23c-1.93-.11-2-2.69-2-3.81h-4s-.29,5.58,6.12,5.58,5.22-5.69,5.22-5.69-.27-2.29-5.08-2.75c-4-.38-2.87-3.47-.89-3.56a2.08,2.08,0,0,1,2.26,1.74Z"/></g><g id="g52"><path id="path54" d="M103.53,210.43v8.12s.79,1.67,1.87,0v-8.12s-1-1.58-1.87,0m-4.67-1.33s4.58-4.25,10.79,0v10s-4.92,5.54-10.79,0Z"/></g><g id="g56"><path id="path58" d="M172.69,213v-2.57s-.83-1.82-2,0v7.76s.84,2.36,2,0V216h3.92v3.21s-4.79,5.32-10.25,0v-9.62s4.5-5.41,10.25,0V213Z"/></g><path id="path60" d="M233.57,221.59h4.37V207.22h-4.37Z"/><g id="g62"><path id="path64" d="M294.11,207.22v14.37h8.58v-2.9H298.4v-2.94h3.29l0-3.11H298.4v-2.59l4.29,0v-2.81Z"/></g><g id="g66"><path id="path68" d="M356.53,207.22v3.17h4v11.2h4.84V210.34h3.75v-3.12Z"/></g><g id="g70"><path id="path72" d="M421.69,207.22l3.92,8v6.34h4.71V215.3l3.83-8.08h-4.54l-1.69,4.86-1.73-4.86Z"/></g></g></g></g></g></svg>